<svg xmlns="http://www.w3.org/2000/svg" viewBox="0 0 64 64" shape-rendering="crispEdges">
  <!-- Purple background rounded square matches Meld brand -->
  <rect width="64" height="64" rx="14" fill="#5438a6"/>
  <!-- Squat Blob mascot in Warm Amber, 10×7 pixel grid scaled to fit, centered -->
  <g transform="translate(8, 16)">
    <!-- row 0 -->
    <rect x="9.6" y="0" width="4.8" height="4.8" fill="#e5a84b"/>
    <rect x="14.4" y="0" width="4.8" height="4.8" fill="#e5a84b"/>
    <rect x="19.2" y="0" width="4.8" height="4.8" fill="#e5a84b"/>
    <rect x="24" y="0" width="4.8" height="4.8" fill="#e5a84b"/>
    <rect x="28.8" y="0" width="4.8" height="4.8" fill="#e5a84b"/>
    <rect x="33.6" y="0" width="4.8" height="4.8" fill="#e5a84b"/>
    <!-- row 1 -->
    <rect x="4.8" y="4.8" width="4.8" height="4.8" fill="#e5a84b"/>
    <rect x="9.6" y="4.8" width="4.8" height="4.8" fill="#e5a84b"/>
    <rect x="14.4" y="4.8" width="4.8" height="4.8" fill="#e5a84b"/>
    <rect x="19.2" y="4.8" width="4.8" height="4.8" fill="#e5a84b"/>
    <rect x="24" y="4.8" width="4.8" height="4.8" fill="#e5a84b"/>
    <rect x="28.8" y="4.8" width="4.8" height="4.8" fill="#e5a84b"/>
    <rect x="33.6" y="4.8" width="4.8" height="4.8" fill="#e5a84b"/>
    <rect x="38.4" y="4.8" width="4.8" height="4.8" fill="#e5a84b"/>
    <!-- row 2 -->
    <rect x="0" y="9.6" width="4.8" height="4.8" fill="#e5a84b"/>
    <rect x="4.8" y="9.6" width="4.8" height="4.8" fill="#e5a84b"/>
    <rect x="9.6" y="9.6" width="4.8" height="4.8" fill="#e5a84b"/>
    <rect x="14.4" y="9.6" width="4.8" height="4.8" fill="#e5a84b"/>
    <rect x="19.2" y="9.6" width="4.8" height="4.8" fill="#e5a84b"/>
    <rect x="24" y="9.6" width="4.8" height="4.8" fill="#e5a84b"/>
    <rect x="28.8" y="9.6" width="4.8" height="4.8" fill="#e5a84b"/>
    <rect x="33.6" y="9.6" width="4.8" height="4.8" fill="#e5a84b"/>
    <rect x="38.4" y="9.6" width="4.8" height="4.8" fill="#e5a84b"/>
    <rect x="43.2" y="9.6" width="4.8" height="4.8" fill="#e5a84b"/>
    <!-- row 3 (with eyes) -->
    <rect x="0" y="14.4" width="4.8" height="4.8" fill="#e5a84b"/>
    <rect x="4.8" y="14.4" width="4.8" height="4.8" fill="#e5a84b"/>
    <rect x="9.6" y="14.4" width="4.8" height="4.8" fill="#6b4b1a"/>
    <rect x="14.4" y="14.4" width="4.8" height="4.8" fill="#e5a84b"/>
    <rect x="19.2" y="14.4" width="4.8" height="4.8" fill="#e5a84b"/>
    <rect x="24" y="14.4" width="4.8" height="4.8" fill="#e5a84b"/>
    <rect x="28.8" y="14.4" width="4.8" height="4.8" fill="#e5a84b"/>
    <rect x="33.6" y="14.4" width="4.8" height="4.8" fill="#6b4b1a"/>
    <rect x="38.4" y="14.4" width="4.8" height="4.8" fill="#e5a84b"/>
    <rect x="43.2" y="14.4" width="4.8" height="4.8" fill="#e5a84b"/>
    <!-- row 4 -->
    <rect x="0" y="19.2" width="4.8" height="4.8" fill="#e5a84b"/>
    <rect x="4.8" y="19.2" width="4.8" height="4.8" fill="#e5a84b"/>
    <rect x="9.6" y="19.2" width="4.8" height="4.8" fill="#e5a84b"/>
    <rect x="14.4" y="19.2" width="4.8" height="4.8" fill="#e5a84b"/>
    <rect x="19.2" y="19.2" width="4.8" height="4.8" fill="#e5a84b"/>
    <rect x="24" y="19.2" width="4.8" height="4.8" fill="#e5a84b"/>
    <rect x="28.8" y="19.2" width="4.8" height="4.8" fill="#e5a84b"/>
    <rect x="33.6" y="19.2" width="4.8" height="4.8" fill="#e5a84b"/>
    <rect x="38.4" y="19.2" width="4.8" height="4.8" fill="#e5a84b"/>
    <rect x="43.2" y="19.2" width="4.8" height="4.8" fill="#e5a84b"/>
    <!-- row 5 -->
    <rect x="4.8" y="24" width="4.8" height="4.8" fill="#e5a84b"/>
    <rect x="9.6" y="24" width="4.8" height="4.8" fill="#e5a84b"/>
    <rect x="14.4" y="24" width="4.8" height="4.8" fill="#e5a84b"/>
    <rect x="19.2" y="24" width="4.8" height="4.8" fill="#e5a84b"/>
    <rect x="24" y="24" width="4.8" height="4.8" fill="#e5a84b"/>
    <rect x="28.8" y="24" width="4.8" height="4.8" fill="#e5a84b"/>
    <rect x="33.6" y="24" width="4.8" height="4.8" fill="#e5a84b"/>
    <rect x="38.4" y="24" width="4.8" height="4.8" fill="#e5a84b"/>
    <!-- row 6 -->
    <rect x="9.6" y="28.8" width="4.8" height="4.8" fill="#e5a84b"/>
    <rect x="14.4" y="28.8" width="4.8" height="4.8" fill="#e5a84b"/>
    <rect x="19.2" y="28.8" width="4.8" height="4.8" fill="#e5a84b"/>
    <rect x="24" y="28.8" width="4.8" height="4.8" fill="#e5a84b"/>
    <rect x="28.8" y="28.8" width="4.8" height="4.8" fill="#e5a84b"/>
    <rect x="33.6" y="28.8" width="4.8" height="4.8" fill="#e5a84b"/>
  </g>
</svg>
